<svg width="211" height="212" viewBox="0 0 211 212" fill="none" xmlns="http://www.w3.org/2000/svg">
<path d="M111.485 206.501C156.4 211.865 176.462 214.261 191.816 203.485C207.965 192.15 217.404 166.99 205.943 122.731C202.428 106.057 204.433 95.059 206.619 83.0636C208.79 71.1567 211.139 58.2668 208.448 37.8669C203.755 2.30273 173.733 3.64477 142.982 5.0194C131.498 5.53271 119.913 6.05065 109.507 4.65258C71.2387 -0.489142 55.914 -2.41028 25.8136 4.65258C-3.94864 11.6362 -2.86272 22.2717 4.68368 43.9181C7.83573 52.9596 5.97948 67.5093 3.74091 85.0558C0.620059 109.518 -3.24387 139.804 4.68367 169.109C16.7262 213.626 41.3744 210.61 69.8017 207.13C80.899 205.772 92.5722 204.343 104.296 205.644C106.761 205.937 109.156 206.223 111.485 206.501Z" fill="black"/>
</svg>
