<svg width="211" height="211" viewBox="0 0 211 211" fill="none" xmlns="http://www.w3.org/2000/svg">
<path d="M4.60803 99.3428C-0.828251 54.5051 -3.25641 34.4778 7.66412 19.151C19.1508 3.02956 44.6473 -6.39305 89.5 5.04793C106.397 8.55666 117.542 6.55556 129.698 4.37294C141.764 2.2065 154.827 -0.1389 175.5 2.54799C224.03 8.8553 211.226 67.0084 203.014 104.307C202.85 105.053 202.687 105.79 202.527 106.518C194.046 136.97 199.714 154.933 208.557 182.957C208.756 183.587 208.957 184.223 209.159 184.864C218.342 213.993 191.304 213.491 169.368 205.958C160.205 202.811 145.461 204.664 127.679 206.899C102.89 210.014 72.1979 213.871 42.5 205.958C-2.6131 193.936 0.444149 169.331 3.97021 140.953C5.34668 129.875 6.79461 118.222 5.47619 106.518C5.17968 104.058 4.88983 101.667 4.60803 99.3428Z" fill="black"/>
</svg>
