<svg width="211" height="211" viewBox="0 0 211 211" fill="none" xmlns="http://www.w3.org/2000/svg">
<path d="M0.453452 81.5C0.453452 24 11.9531 12.5001 42.9531 13.0001C57.9725 13.2423 67.8277 10.3156 78.2053 7.2337C89.2469 3.95465 100.88 0.5 119.954 0.5C183.954 0.5 202.454 45 205.954 75.5C206.272 78.2727 206.669 81.3471 207.097 84.666C211.379 117.855 218.817 175.5 182.454 200.5C159.413 216.34 131.23 210.946 101.44 205.245C79.512 201.048 56.7132 196.684 34.4537 200.5C-1.5723 206.676 -0.538369 145.635 0.242637 99.5268C0.350425 93.1612 0.453452 87.0802 0.453452 81.5Z" fill="black"/>
</svg>
